<svg xmlns="http://www.w3.org/2000/svg" viewBox="0 0 841.89 107.76"><path d="M22,3.52A2.4,2.4,0,0,1,24.45,5.9V42.61A2.4,2.4,0,0,0,26.86,45H76.77a2.4,2.4,0,0,0,2.41-2.39V5.9A2.41,2.41,0,0,1,81.6,3.52h19.61a2.4,2.4,0,0,1,2.42,2.38v96.8a2.4,2.4,0,0,1-2.42,2.39H81.6a2.41,2.41,0,0,1-2.42-2.39V70.26a2.39,2.39,0,0,0-2.41-2.38H26.86a2.39,2.39,0,0,0-2.41,2.38V102.7A2.4,2.4,0,0,1,22,105.09H2.42A2.4,2.4,0,0,1,0,102.7V5.9A2.4,2.4,0,0,1,2.42,3.52Z" fill="#231f20"/><path d="M799.82,0c24.65,0,42.07,16.78,42.07,40.73v62a2.4,2.4,0,0,1-2.41,2.39H821.59a2.4,2.4,0,0,1-2.42-2.39V48.11c0-17.21-9-26.84-24.11-26.84-14.61,0-26.83,9.52-26.83,27.05V102.7a2.4,2.4,0,0,1-2.42,2.39H747.93a2.41,2.41,0,0,1-2.42-2.39V5.06a2.41,2.41,0,0,1,2.42-2.39H765.6A2.4,2.4,0,0,1,768,5.06V15.18C776.34,3.1,789.22,0,799.82,0Z" fill="#231f20"/><path d="M399.17,0c24.67,0,42.08,16.78,42.08,40.73v62a2.4,2.4,0,0,1-2.41,2.39H421a2.4,2.4,0,0,1-2.41-2.39V48.11c0-17.21-9-26.84-24.12-26.84-14.61,0-26.83,9.52-26.83,27.05V102.7a2.4,2.4,0,0,1-2.41,2.39H347.29a2.4,2.4,0,0,1-2.41-2.39V48.11c0-17.21-9-26.84-24.12-26.84-14.6,0-26.83,9.52-26.83,27.05V102.7a2.4,2.4,0,0,1-2.41,2.39H273.63a2.4,2.4,0,0,1-2.41-2.39V5.06a2.4,2.4,0,0,1,2.41-2.39H291.3a2.4,2.4,0,0,1,2.42,2.39V15.18C302,3.1,314.91,0,325.52,0,340,0,352,5.84,359.42,15.54a2.45,2.45,0,0,0,3.89-.19C372.53,3.14,387.21,0,399.17,0Z" fill="#231f20"/><path d="M707.65,2.67H689.88a2.4,2.4,0,0,0-2.42,2.39v10C680.33,6,669.62,0,654.9,0c-29,0-51.81,22.56-51.81,53.88s22.83,53.88,51.81,53.88c14.72,0,25.43-5.88,32.56-15v9.9a2.4,2.4,0,0,0,2.42,2.39h17.77a2.4,2.4,0,0,0,2.42-2.39V5.06A2.4,2.4,0,0,0,707.65,2.67Zm-50,84c-19.47,0-31.26-14.86-31.26-32.82s11.79-32.82,31.26-32.82c18.71,0,31.26,14.11,31.26,32.82S676.32,86.7,657.61,86.7Z" fill="#231f20"/><path d="M573.29,2.67h-19a1.82,1.82,0,0,0-1.82,1.8V15.08C545.36,6,534.66,0,519.94,0c-29,0-51.81,22.56-51.81,53.88s22.83,53.88,51.81,53.88c14.72,0,25.42-5.88,32.56-15v10.49a1.81,1.81,0,0,0,1.82,1.8h19a1.81,1.81,0,0,0,1.82-1.8V4.47A1.82,1.82,0,0,0,573.29,2.67Zm-50.64,84c-19.47,0-31.26-14.86-31.26-32.82s11.79-32.82,31.26-32.82c18.71,0,31.26,14.11,31.26,32.82S541.36,86.7,522.65,86.7Z" fill="#231f20"/><path d="M161.1,2.67a2.4,2.4,0,0,1,2.41,2.39V59.65c0,19.78,11.14,27.05,25.32,27.05s25.31-7.27,25.31-27.05V5.06a2.4,2.4,0,0,1,2.41-2.39h17.89a2.4,2.4,0,0,1,2.41,2.39V61.68c0,32.61-23.8,46.08-48,46.08s-48-13.47-48-46.08V5.06a2.4,2.4,0,0,1,2.42-2.39Z" fill="#231f20"/></svg>