<svg width="160" height="280" viewBox="0 0 160 280" fill="none" xmlns="http://www.w3.org/2000/svg">
<path d="M-1.52588e-05 80C-1.52588e-05 58.7827 8.42847 38.4346 23.4314 23.4317C38.4343 8.42875 58.7827 1.93369e-05 80 1.93369e-05C91.3566 -0.00788802 102.584 2.40944 112.931 7.08986C123.278 11.7703 132.507 18.606 140 27.1402C152.9 41.7255 160.014 60.5285 160 80V200C159.976 221.21 151.54 241.545 136.542 256.543C121.544 271.54 101.21 279.976 80 280C58.79 279.976 38.4555 271.54 23.4577 256.543C8.46 241.545 0.0238058 221.21 -1.52588e-05 200H40C40 210.609 44.2141 220.783 51.7156 228.285C59.217 235.786 69.3913 240 80 240C90.6046 239.987 100.771 235.769 108.27 228.27C115.768 220.771 119.987 210.605 120 200V149.27C107.846 156.312 94.0463 160.014 80 160C58.7827 160 38.4343 151.572 23.4314 136.569C8.42847 121.566 -1.52588e-05 101.217 -1.52588e-05 80V80ZM40 80C40 90.6087 44.2141 100.783 51.7156 108.285C59.217 115.786 69.3913 120 80 120C90.6046 119.987 100.771 115.769 108.27 108.27C115.768 100.771 119.987 90.6046 120 80C120 69.3914 115.786 59.2173 108.284 51.7158C100.783 44.2144 90.6086 40 80 40C69.3913 40 59.217 44.2144 51.7156 51.7158C44.2141 59.2173 40 69.3914 40 80Z" fill="black"/>
</svg>
