<svg width="160" height="280" viewBox="0 0 160 280" fill="none" xmlns="http://www.w3.org/2000/svg">
<path d="M0 200C0 221.217 8.42855 241.566 23.4315 256.569C38.4344 271.572 58.7827 280 80 280C91.3562 280.005 102.583 277.587 112.93 272.907C123.277 268.227 132.506 261.392 140 252.86C152.899 238.275 160.013 219.471 160 200V80C159.979 58.7892 151.543 38.4534 136.545 23.4551C121.547 8.45676 101.211 0.0211791 80 0C58.79 0.0238211 38.4555 8.46026 23.4578 23.458C8.46001 38.4558 0.0238211 58.79 0 80H40C40 69.3913 44.2143 59.2173 51.7157 51.7158C59.2172 44.2144 69.3914 40 80 40C90.6087 40 100.783 44.2144 108.284 51.7158C115.786 59.2173 120 69.3913 120 80V130.73C107.847 123.687 94.0465 119.985 80 120C58.7827 120 38.4344 128.429 23.4315 143.432C8.42855 158.435 0 178.783 0 200ZM40 200C40 189.391 44.2143 179.217 51.7157 171.716C59.2172 164.214 69.3914 160 80 160C90.6087 160 100.783 164.214 108.284 171.716C115.786 179.217 120 189.391 120 200C120 210.609 115.786 220.783 108.284 228.285C100.783 235.786 90.6087 240 80 240C69.3954 239.987 59.2289 235.769 51.7303 228.27C44.2318 220.771 40.0132 210.605 40 200V200Z" fill="black"/>
</svg>
