<svg width="280" height="240" viewBox="0 0 280 240" fill="none" xmlns="http://www.w3.org/2000/svg">
<path fill-rule="evenodd" clip-rule="evenodd" d="M108.284 51.7158C100.783 44.2144 90.6086 40 80 40C69.3914 40 59.2173 44.2144 51.7158 51.7158C44.2144 59.2173 40 69.3914 40 80H0C0.0239258 58.79 8.45996 38.4553 23.4578 23.4575C38.4556 8.45972 58.79 0.0238037 80 0C101.21 0.0238037 121.544 8.45972 136.542 23.4575C151.54 38.4553 159.976 58.79 160 80V120H280V160C279.976 181.21 271.54 201.544 256.542 216.542C241.544 231.54 221.21 239.976 200 240C178.79 239.976 158.456 231.54 143.458 216.542C128.46 201.544 120.024 181.21 120 160V120V80C120 69.3914 115.786 59.2173 108.284 51.7158ZM160 160C160.013 170.605 164.232 180.771 171.73 188.27C179.229 195.768 189.396 199.987 200 200C210.609 200 220.783 195.786 228.284 188.284C235.786 180.783 240 170.609 240 160H160Z" fill="black"/>
</svg>
