<svg width="160" height="160" viewBox="0 0 160 160" fill="none" xmlns="http://www.w3.org/2000/svg">
<path d="M160 80C160 58.7827 151.572 38.4346 136.569 23.4316C121.566 8.42873 101.217 0 80 0C58.7827 0 38.4343 8.42873 23.4314 23.4316C8.42849 38.4346 0 58.7827 0 80C0 101.217 8.42849 121.566 23.4314 136.569C38.4343 151.572 58.7827 160 80 160C101.217 160 121.566 151.572 136.569 136.569C151.572 121.566 160 101.217 160 80V80ZM120 80C120 90.6087 115.786 100.783 108.284 108.285C100.783 115.786 90.6087 120 80 120C69.3913 120 59.2173 115.786 51.7158 108.285C44.2144 100.783 40 90.6087 40 80C40 69.3913 44.2144 59.2173 51.7158 51.7158C59.2173 44.2144 69.3913 40 80 40C90.6087 40 100.783 44.2144 108.284 51.7158C115.786 59.2173 120 69.3913 120 80Z" fill="black"/>
</svg>
