<svg width="38" height="24" viewBox="0 0 38 24" fill="none" xmlns="http://www.w3.org/2000/svg">
<path d="M11.1505 1.06185L0.243423 21.0592C-0.483101 22.3912 0.504029 24 2.04789 24L12.9549 24C14.0844 24 15 23.1047 15 22.0003L15 2.0029C15 -0.0788924 12.1523 -0.775028 11.1505 1.06185Z" fill="currentColor"/>
<path fill-rule="evenodd" clip-rule="evenodd" d="M35.9521 22.0003L25.0451 2.0029L25.0451 22.0003L35.9521 22.0003ZM37.7566 21.0592L26.8495 1.06185C25.8477 -0.775029 23 -0.0788928 23 2.0029L23 22.0003C23 23.1047 23.9156 24 25.0451 24L35.9521 24C37.496 24 38.4831 22.3912 37.7566 21.0592Z" fill="currentColor"/>
<path fill-rule="evenodd" clip-rule="evenodd" d="M19 -4.37056e-08C18.4477 -1.95677e-08 18 0.447715 18 1L18 2.83333C18 3.38562 18.4477 3.83333 19 3.83333C19.5523 3.83333 20 3.38562 20 2.83333L20 1C20 0.447715 19.5523 -6.78435e-08 19 -4.37056e-08ZM19 5.5C18.4477 5.5 18 5.94772 18 6.5L18 10.1667C18 10.719 18.4477 11.1667 19 11.1667C19.5523 11.1667 20 10.719 20 10.1667L20 6.5C20 5.94772 19.5523 5.5 19 5.5ZM19 12.8333C18.4477 12.8333 18 13.281 18 13.8333L18 17.5C18 18.0523 18.4477 18.5 19 18.5C19.5523 18.5 20 18.0523 20 17.5L20 13.8333C20 13.281 19.5523 12.8333 19 12.8333ZM19 20.1667C18.4477 20.1667 18 20.6144 18 21.1667L18 23C18 23.5523 18.4477 24 19 24C19.5523 24 20 23.5523 20 23L20 21.1667C20 20.6144 19.5523 20.1667 19 20.1667Z" fill="currentColor"/>
</svg>
