<svg width="120" height="200" viewBox="0 0 120 200" fill="none" xmlns="http://www.w3.org/2000/svg">
<path d="M120 0H0V40H120V0Z" fill="black"/>
<path d="M60 120C65.3043 120 70.3914 122.107 74.1421 125.858C77.8928 129.609 80 134.696 80 140C80 145.304 77.8928 150.392 74.1421 154.143C70.3914 157.893 65.3043 160 60 160C54.6957 160 49.6086 157.893 45.8579 154.143C42.1072 150.392 40 145.304 40 140C40 134.696 42.1072 129.609 45.8579 125.858C49.6086 122.107 54.6957 120 60 120ZM60 80C44.087 80 28.8259 86.3215 17.5737 97.5737C6.32155 108.826 0 124.087 0 140C0 155.913 6.32155 171.175 17.5737 182.427C28.8259 193.679 44.087 200 60 200C75.913 200 91.1743 193.679 102.427 182.427C113.679 171.175 120 155.913 120 140C120 124.087 113.679 108.826 102.427 97.5737C91.1743 86.3215 75.913 80 60 80Z" fill="black"/>
</svg>
