<svg width="320" height="160" viewBox="0 0 320 160" fill="none" xmlns="http://www.w3.org/2000/svg">
<path d="M240 120C229.391 120 219.217 115.786 211.716 108.285C204.214 100.783 200 90.6087 200 80H160C160.024 101.21 168.46 121.545 183.458 136.542C198.456 151.54 218.79 159.976 240 160C261.21 159.976 281.544 151.54 296.542 136.542C311.54 121.545 319.976 101.21 320 80H280C280 90.6087 275.786 100.783 268.284 108.285C260.783 115.786 250.609 120 240 120Z" fill="black"/>
<path d="M80 120C69.3913 120 59.2173 115.786 51.7158 108.284C44.2144 100.783 40 90.6087 40 80H0C0.0238211 101.21 8.46001 121.544 23.4578 136.542C38.4555 151.54 58.79 159.976 80 160C101.21 159.976 121.544 151.54 136.542 136.542C151.54 121.544 159.976 101.21 160 80H120C120 90.6087 115.786 100.783 108.284 108.284C100.783 115.786 90.6087 120 80 120V120Z" fill="black"/>
<path d="M80 39.9998C80.0238 61.2098 88.46 81.5445 103.458 96.5422C118.456 111.54 138.79 119.976 160 120C181.21 119.976 201.544 111.54 216.542 96.5422C231.54 81.5445 239.976 61.2098 240 39.9998H200C200 50.6084 195.786 60.783 188.284 68.2844C180.783 75.7859 170.609 79.9998 160 79.9998C149.395 79.9865 139.229 75.7684 131.73 68.2698C124.232 60.7712 120.013 50.6044 120 39.9998" fill="black"/>
<path d="M240 0H80V40H240V0Z" fill="black"/>
</svg>
