<svg width="160" height="160" viewBox="0 0 160 160" fill="none" xmlns="http://www.w3.org/2000/svg">
<path d="M80 160C101.217 160 121.566 151.572 136.569 136.569C151.572 121.566 160 101.217 160 80C160 69.4943 157.931 59.0918 153.91 49.3857C149.89 39.6797 143.997 30.8603 136.569 23.4316C129.14 16.003 120.321 10.1102 110.615 6.08984C100.909 2.06947 90.5057 0 80 0C69.4943 0 59.0914 2.06947 49.3854 6.08984C39.6793 10.1102 30.8602 16.003 23.4315 23.4316C16.0028 30.8603 10.1101 39.6797 6.08972 49.3857C2.06935 59.0918 0 69.4943 0 80C0 101.217 8.42861 121.566 23.4315 136.569C38.4344 151.572 58.7827 160 80 160ZM80 40C90.6087 40 100.783 44.2144 108.284 51.7158C115.786 59.2173 120 69.3913 120 80C120 90.6087 115.786 100.783 108.284 108.285C100.783 115.786 90.6087 120 80 120C69.3954 119.987 59.2289 115.769 51.7303 108.27C44.2318 100.771 40.0132 90.6046 40 80C40 69.3913 44.2144 59.2173 51.7158 51.7158C59.2173 44.2144 69.3913 40 80 40V40Z" fill="black"/>
</svg>
