<svg width="280" height="240" viewBox="0 0 280 240" fill="none" xmlns="http://www.w3.org/2000/svg">
<path d="M240 160C240 170.609 235.786 180.783 228.284 188.284C220.783 195.786 210.609 200 200 200C189.395 199.987 179.229 195.768 171.73 188.27C164.232 180.771 160.013 170.605 160 160V80C159.979 58.7892 151.543 38.4534 136.545 23.4551C121.547 8.45676 101.211 0.0211791 80 0C58.79 0.0238211 38.4555 8.46026 23.4578 23.458C8.46001 38.4558 0.0238211 58.79 0 80H40C40 69.3913 44.2144 59.2173 51.7158 51.7158C59.2173 44.2144 69.3913 40 80 40C90.6087 40 100.783 44.2144 108.284 51.7158C115.786 59.2173 120 69.3913 120 80V160C120.024 181.21 128.46 201.544 143.458 216.542C158.456 231.54 178.79 239.976 200 240C221.21 239.976 241.544 231.54 256.542 216.542C271.54 201.544 279.976 181.21 280 160H240Z" fill="black"/>
</svg>
